<svg xmlns="http://www.w3.org/2000/svg" width="837" height="837" viewBox="0 0 27 27"><path d="M1 1h7v7h-7zM9 1h1v2h1v1h-2zM11 1h2v1h-2zM15 1h1v1h-1zM19 1h7v7h-7zM2 2v5h5v-5zM13 2h2v1h1v1h2v2h-1v-1h-1v3h-1v-1h-1v1h1v1h-1v1h1v-1h1v-1h1v1h2v1h-2v3h-1v-2h-1v1h-3v-1h-1v1h1v2h-1v-1h-1v1h-1v-2h-2v1h-1v-2h2v-1h-4v-1h6v1h2v-1h1v-3h-1v-1h-1v-1h1v-1h1zM17 2h1v1h-1zM20 2v5h5v-5zM3 3h3v3h-3zM21 3h3v3h-3zM9 5h1v1h-1zM11 6h1v3h-1zM9 7h1v1h-1zM17 7h1v1h-1zM1 9h1v1h2v3h2v1h-2v1h2v1h-1v1h-1v1h-1v-2h-1v2h-1v-4h2v-3h-2zM21 9h1v1h1v-1h3v1h-1v1h-2v1h2v-1h1v3h-1v-1h-3v-2h-1v3h-2v-2h1v-2h1zM18 11h1v1h-1zM1 12h1v1h-1zM7 13h1v1h-1zM13 13h1v3h-1zM17 13h1v1h-1zM8 14h1v2h-2v-1h1zM10 14h1v1h1v1h-2zM15 14h2v1h1v-1h1v1h1v1h1v1h1v5h-2v1h-1v2h1v1h-3v-1h1v-2h-3v1h-1v2h-1v-1h-1v-2h-1v-1h2v1h1v-1h1v-1h1v-1h1v-2h-1v-3h-1zM21 14h1v1h2v-1h1v1h1v2h-1v-1h-1v1h1v2h-2v-2h-1v-1h-1zM9 16h1v1h-1zM12 16h1v1h-1zM18 16v1h1v-1zM5 17h3v1h-3zM10 17h1v1h-1zM13 17h2v4h-1v1h-1v-2h1v-2h-1zM9 18h1v5h-1zM18 18v3h3v-3zM1 19h7v7h-7zM12 19h1v1h-1zM19 19h1v1h-1zM25 19h1v1h-1zM2 20v5h5v-5zM3 21h3v3h-3zM24 22h2v4h-1v-1h-2v-1h-1v1h-2v-1h1v-1h3zM10 23h1v1h-1zM16 24h1v1h-1zM9 25h1v1h-1zM22 25h1v1h-1z"/></svg>