<svg xmlns="http://www.w3.org/2000/svg" width="24" height="24" fill="none" viewBox="0 0 24 24" id="space-rocket">
  <path stroke="#323232" stroke-linecap="round" stroke-linejoin="round" stroke-width="1.5" d="M17.0978 12.1235L11.6988 16.4427C11.3007 16.7612 10.7269 16.7294 10.3664 16.3689L7.63106 13.6336C7.27061 13.2731 7.23883 12.6993 7.55727 12.3012L11.8765 6.90222C13.8515 4.43341 16.8417 2.99625 20.0033 2.99625V2.99625C20.5558 2.99625 21.0037 3.44415 21.0037 3.99667V3.99667C21.0037 7.15828 19.5666 10.1485 17.0978 12.1235Z" clip-rule="evenodd"></path>
  <path stroke="#323232" stroke-linecap="round" stroke-linejoin="round" stroke-width="1.5" d="M16.0017 13.0004V17.3842C16.0017 17.7632 15.7876 18.1096 15.4486 18.279L13.0317 19.4875C12.7723 19.6172 12.4694 19.628 12.2015 19.517 11.9335 19.406 11.7269 19.1842 11.6352 18.9091L10.9996 17.0021M6.99792 13.0004L5.09096 12.3648C4.81583 12.2731 4.59404 12.0665 4.48306 11.7985 4.37208 11.5306 4.38283 11.2277 4.51252 10.9683L5.72102 8.55135C5.89047 8.21245 6.23685 7.99833 6.61576 7.99833H10.9996"></path>
  <path stroke="#323232" stroke-linecap="round" stroke-linejoin="round" stroke-width="1.5" d="M5.74749 20.5904L2.99625 21.0037L3.40957 18.2525C3.54365 17.36 4.24427 16.6594 5.13678 16.5253V16.5253C5.78173 16.4284 6.4344 16.6433 6.89556 17.1045C7.35673 17.5656 7.57166 18.2183 7.47475 18.8633V18.8633C7.34065 19.7558 6.64 20.4564 5.74749 20.5904V20.5904Z" clip-rule="evenodd"></path>
</svg>
