<svg xmlns="http://www.w3.org/2000/svg" width="72" height="72" viewBox="3 3 30 30" id="galaxy">
  <path fill="#fff" d="M25.25 1031.246a7 7 0 0 1-7 7 7 7 0 0 1-7-7 7 7 0 0 1 7-7 7 7 0 0 1 7 7z" color="#000" overflow="visible" style="isolation:auto;mix-blend-mode:normal" transform="translate(0 -1016.362)"></path>
  <path fill="#fff" d="M23.2 1037.93a7 7 0 0 1-4.95 2.05 7 7 0 0 1-4.95-2.05" color="#000" overflow="visible" style="isolation:auto;mix-blend-mode:normal" transform="translate(0 -1016.362)"></path>
  <path fill="#c2e4f8" d="M12.5 29.501a1.5 1.667 0 0 0-.75-1.443 1.5 1.667 0 0 0-1.5 0A1.5 1.667 0 0 0 9.5 29.5H11zm7.272-.668a1.5 1.667 0 0 0-.75-1.444 1.5 1.667 0 0 0-1.5 0 1.5 1.667 0 0 0-.75 1.444h1.5zm6.728.668a1.5 1.667 0 0 0-.75-1.443 1.5 1.667 0 0 0-1.5 0 1.5 1.667 0 0 0-.75 1.443H25z"></path>
  <path fill="#249fe6" fill-rule="evenodd" d="M17.773 1039.745v4.234h1v-4.234h-1zm-3.365-1.248-3.023 5.332.87.492 3.024-5.33-.87-.494zm7.78.006-.875.482 2.93 5.33.874-.48-2.93-5.332z" color="#000" font-family="sans-serif" font-weight="400" overflow="visible" style="line-height:normal;text-indent:0;text-align:start;text-decoration-line:none;text-decoration-style:solid;text-decoration-color:#000;text-transform:none;block-progression:tb;isolation:auto;mix-blend-mode:normal" transform="translate(0 -1016.362)"></path>
  <path fill="#c2e4f8" d="M11.243 1031.28c-3.058.712-4.488 1.889-4.493 3.147 0 2.109 5.037 3.819 11.25 3.819s11.25-1.71 11.25-3.82c-.003-1.114-1.441-2.173-3.938-2.898-.255 2.178-3.232 3.868-6.823 3.87-3.75 0-7.202-1.836-7.246-4.117z" color="#000" overflow="visible" style="isolation:auto;mix-blend-mode:normal" transform="translate(0 -1016.362)"></path>
  <path fill="#249fe6" d="M18.297 1023.694c-4.162 0-7.547 3.387-7.547 7.55a.503.503 0 1 0 1.006 0 6.533 6.533 0 0 1 6.54-6.542 6.533 6.533 0 0 1 6.542 6.541.503.503 0 1 0 1.006 0c0-4.162-3.385-7.549-7.547-7.549z" color="#000" font-family="sans-serif" font-weight="400" overflow="visible" style="line-height:normal;text-indent:0;text-align:start;text-decoration-line:none;text-decoration-style:solid;text-decoration-color:#000;text-transform:none;block-progression:tb;isolation:auto;mix-blend-mode:normal" transform="translate(0 -1016.362)"></path>
  <path fill="#249fe6" d="M11.219 1030.782a.5.5 0 0 0-.09.012c-1.572.366-2.75.85-3.572 1.451-.823.6-1.304 1.362-1.307 2.18 0 .726.432 1.364 1.07 1.877.639.513 1.51.939 2.565 1.297 2.109.716 4.963 1.144 8.115 1.144 3.153 0 6.006-.428 8.115-1.144 1.055-.358 1.926-.784 2.565-1.297.638-.513 1.07-1.15 1.07-1.877-.002-.772-.492-1.448-1.236-1.996s-1.776-1.007-3.063-1.38a.5.5 0 0 0-.635.421c-.103.881-.778 1.732-1.912 2.375s-2.699 1.052-4.416 1.053c-1.793 0-3.522-.445-4.77-1.139-1.246-.694-1.959-1.597-1.976-2.488a.5.5 0 0 0-.523-.488zm-.239 1.137c.288 1.092 1.062 2.05 2.252 2.713 1.428.794 3.3 1.265 5.256 1.265a.5.5 0 0 0 .002 0c1.874 0 3.592-.437 4.908-1.183 1.096-.622 1.816-1.518 2.153-2.535.977.32 1.852.674 2.369 1.054.6.442.83.852.83 1.196 0 .328-.198.695-.697 1.095-.5.402-1.277.796-2.258 1.13-1.963.665-4.734 1.091-7.795 1.091-3.06 0-5.832-.426-7.795-1.092-.981-.333-1.758-.727-2.258-1.129-.5-.4-.697-.769-.697-1.097.002-.44.24-.895.897-1.375.58-.424 1.607-.806 2.834-1.133z" color="#000" font-family="sans-serif" font-weight="400" overflow="visible" style="line-height:normal;text-indent:0;text-align:start;text-decoration-line:none;text-decoration-style:solid;text-decoration-color:#000;text-transform:none;block-progression:tb;isolation:auto;mix-blend-mode:normal" transform="translate(0 -1016.362)"></path>
  <path fill="#249fe6" d="M9.65 1033.546a.5.5 0 0 1-.5.5.5.5 0 0 1-.5-.5.5.5 0 0 1 .5-.5.5.5 0 0 1 .5.5zm1.8 1.6a.5.5 0 0 1-.5.5.5.5 0 0 1-.5-.5.5.5 0 0 1 .5-.5.5.5 0 0 1 .5.5zm14.8-1.4a.5.5 0 0 0 .5.5.5.5 0 0 0 .5-.5.5.5 0 0 0-.5-.5.5.5 0 0 0-.5.5zm-1.8 1.6a.5.5 0 0 0 .5.5.5.5 0 0 0 .5-.5.5.5 0 0 0-.5-.5.5.5 0 0 0-.5.5zm-10.2.9a.5.5 0 0 1-.5.5.5.5 0 0 1-.5-.5.5.5 0 0 1 .5-.5.5.5 0 0 1 .5.5zm8 .1a.5.5 0 0 1-.5.5.5.5 0 0 1-.5-.5.5.5 0 0 1 .5-.5.5.5 0 0 1 .5.5zm-4 .4a.5.5 0 0 1-.5.5.5.5 0 0 1-.5-.5.5.5 0 0 1 .5-.5.5.5 0 0 1 .5.5z" color="#000" overflow="visible" style="isolation:auto;mix-blend-mode:normal" transform="translate(0 -1016.362)"></path>
  <path fill="#249fe6" d="M13.295 1037.425a.5.5 0 0 0-.348.86 7.498 7.498 0 0 0 10.606 0 .5.5 0 1 0-.707-.708 6.497 6.497 0 0 1-4.596 1.902 6.497 6.497 0 0 1-4.596-1.902.5.5 0 0 0-.36-.152zm-3.795 8.937a.5.5 0 0 1-.5-.5c0-.755.36-1.465.98-1.863a1.888 1.888 0 0 1 2.04 0c.62.399.98 1.108.98 1.863a.5.5 0 0 1-.5.5h-3zm.754-1h1.492c-.092-.181-.109-.42-.266-.521a.855.855 0 0 0-.96 0c-.157.1-.174.34-.266.521zm6.52.332a.5.5 0 0 1-.5-.5c0-.755.357-1.464.978-1.863a1.892 1.892 0 0 1 2.041 0c.621.399.98 1.108.98 1.863a.5.5 0 0 1-.5.5h-3zm.753-1h1.491c-.092-.181-.11-.42-.266-.521a.852.852 0 0 0-.959 0c-.157.1-.174.34-.266.521zm5.973 1.668a.5.5 0 0 1-.5-.5c0-.755.36-1.465.98-1.863a1.888 1.888 0 0 1 2.04 0c.62.399.98 1.108.98 1.863a.5.5 0 0 1-.5.5h-3zm.754-1h1.492c-.092-.181-.109-.42-.266-.521a.855.855 0 0 0-.96 0c-.157.1-.174.34-.266.521z" color="#000" font-family="sans-serif" font-weight="400" overflow="visible" style="line-height:normal;text-indent:0;text-align:start;text-decoration-line:none;text-decoration-style:solid;text-decoration-color:#000;text-transform:none;block-progression:tb;isolation:auto;mix-blend-mode:normal" transform="translate(0 -1016.362)"></path>
</svg>
